<svg width="40" height="40" viewBox="0 0 40 40" fill="none" xmlns="http://www.w3.org/2000/svg">
<path d="M26.4286 23.4286C26.0876 23.4286 25.7606 23.5641 25.5194 23.8052C25.2783 24.0463 25.1429 24.3733 25.1429 24.7143C25.1429 25.0553 25.2783 25.3823 25.5194 25.6234C25.7606 25.8646 26.0876 26 26.4286 26H30.7143C31.0553 26 31.3823 25.8646 31.6234 25.6234C31.8645 25.3823 32 25.0553 32 24.7143C32 24.3733 31.8645 24.0463 31.6234 23.8052C31.3823 23.5641 31.0553 23.4286 30.7143 23.4286H26.4286ZM6.78572 7.14288C5.7438 7.14288 4.74455 7.55678 4.0078 8.29353C3.27105 9.03028 2.85715 10.0295 2.85715 11.0715V27.5C2.85715 28.5419 3.27105 29.5412 4.0078 30.2779C4.74455 31.0147 5.7438 31.4286 6.78572 31.4286H33.2143C34.2562 31.4286 35.2555 31.0147 35.9922 30.2779C36.729 29.5412 37.1429 28.5419 37.1429 27.5V11.0715C37.1429 10.0295 36.729 9.03028 35.9922 8.29353C35.2555 7.55678 34.2562 7.14288 33.2143 7.14288H6.78572ZM5 27.5V16.4286H35V27.5C35 28.4857 34.2 29.2857 33.2143 29.2857H6.78572C5.8 29.2857 5 28.4857 5 27.5ZM5 14.2857V11.0715C5 10.0857 5.8 9.28574 6.78572 9.28574H33.2143C34.2 9.28574 35 10.0857 35 11.0715V14.2857H5Z" fill="#F90C0C"/>
</svg>
