<svg width="30" height="30" viewBox="0 0 30 30" fill="none" xmlns="http://www.w3.org/2000/svg">
<path d="M15.9979 8.19867C12.3089 8.19867 9.33328 11.1749 9.33328 14.8647C9.33328 18.5546 12.3089 21.5308 15.9979 21.5308C19.6869 21.5308 22.6625 18.5546 22.6625 14.8647C22.6625 11.1749 19.6869 8.19867 15.9979 8.19867ZM15.9979 19.1986C13.6139 19.1986 11.665 17.255 11.665 14.8647C11.665 12.4745 13.6081 10.5309 15.9979 10.5309C18.3876 10.5309 20.3307 12.4745 20.3307 14.8647C20.3307 17.255 18.3818 19.1986 15.9979 19.1986ZM24.4896 7.926C24.4896 8.79044 23.7935 9.48083 22.9351 9.48083C22.0708 9.48083 21.3806 8.78464 21.3806 7.926C21.3806 7.06736 22.0766 6.37116 22.9351 6.37116C23.7935 6.37116 24.4896 7.06736 24.4896 7.926ZM28.9036 9.50404C28.805 7.42126 28.3294 5.57634 26.8039 4.05631C25.2842 2.53628 23.4397 2.06055 21.3574 1.95612C19.2113 1.83429 12.7787 1.83429 10.6326 1.95612C8.55604 2.05475 6.71153 2.53048 5.18604 4.05051C3.66055 5.57054 3.19073 7.41545 3.08632 9.49824C2.96451 11.6448 2.96451 18.0788 3.08632 20.2255C3.18493 22.3082 3.66055 24.1532 5.18604 25.6732C6.71153 27.1932 8.55024 27.6689 10.6326 27.7734C12.7787 27.8952 19.2113 27.8952 21.3574 27.7734C23.4397 27.6747 25.2842 27.199 26.8039 25.6732C28.3236 24.1532 28.7992 22.3082 28.9036 20.2255C29.0254 18.0788 29.0254 11.6506 28.9036 9.50404ZM26.1311 22.5287C25.6786 23.6658 24.8028 24.5419 23.6601 25.0002C21.949 25.679 17.8888 25.5223 15.9979 25.5223C14.107 25.5223 10.0409 25.6732 8.33562 25.0002C7.19876 24.5477 6.32291 23.6716 5.86468 22.5287C5.18604 20.8172 5.34265 16.7561 5.34265 14.8647C5.34265 12.9734 5.19184 8.90647 5.86468 7.20079C6.31711 6.06367 7.19296 5.18763 8.33562 4.7293C10.0467 4.05051 14.107 4.20715 15.9979 4.20715C17.8888 4.20715 21.9548 4.05631 23.6601 4.7293C24.797 5.18183 25.6728 6.05787 26.1311 7.20079C26.8097 8.91227 26.6531 12.9734 26.6531 14.8647C26.6531 16.7561 26.8097 20.823 26.1311 22.5287Z" fill="white"/>
</svg>
