<svg width="40" height="40" viewBox="0 0 40 40" fill="none" xmlns="http://www.w3.org/2000/svg">
<path d="M20.5 33.75C28.0939 33.75 34.25 27.5939 34.25 20C34.25 12.4061 28.0939 6.25 20.5 6.25C12.9061 6.25 6.75 12.4061 6.75 20C6.75 27.5939 12.9061 33.75 20.5 33.75Z" fill="#F90C0C"/>
<path d="M20.4375 10.6875C15.0625 10.6875 10.625 14.8125 10.4375 20V19.6875C10.4375 14.375 14.9375 10 20.4375 10C25.9375 10 30.4375 14.3125 30.4375 19.6875V20C30.25 14.8125 25.875 10.6875 20.4375 10.6875Z" fill="#F90C0C"/>
<path d="M20.4375 29.3125C25.8125 29.3125 30.25 25.1875 30.4375 20V20.3125C30.4375 25.625 25.9375 30 20.4375 30C14.9375 30 10.4375 25.6875 10.4375 20.3125V20C10.6875 25.1875 15.0625 29.3125 20.4375 29.3125Z" fill="white"/>
<path d="M2.18749 4.62498C2.31249 4.06248 2.62499 4.62498 2.62499 4.62498C2.62499 4.62498 2.74999 10.6875 3.37499 10.75C4.06249 10.875 3.56249 4.49998 4.37499 4.37498C5.12499 4.24998 4.68749 10.875 5.37499 10.8125C6.06249 10.75 6.18749 4.62498 6.18749 4.62498C6.18749 4.62498 6.49999 4.06248 6.62499 4.62498C8.43749 11.8125 6.99999 14.75 6.99999 14.75C6.99999 14.75 6.74999 15.375 6.12499 15.375C6.06249 15.375 6.12499 32.4375 6.12499 34.75C6.12499 35.875 2.68749 35.8125 2.68749 34.75C2.68749 32.4375 2.74999 15.375 2.68749 15.375C2.06249 15.375 1.81249 14.75 1.81249 14.75C1.81249 14.75 0.312493 11.8125 2.18749 4.62498ZM34.75 4.37498C35.5 4.37498 38.75 6.68748 38.75 15.3125C38.75 18.0625 37.25 18.0625 37.25 19.8125V35.1875C37.25 35.1875 35.625 36.25 34.375 35.0625V4.62498C34.375 4.62498 34.375 4.37498 34.75 4.37498Z" fill="#F90C0C"/>
</svg>
