<svg width="41" height="41" viewBox="0 0 41 41" fill="none" xmlns="http://www.w3.org/2000/svg">
<path d="M35.875 13.6666H25.0954L26.7183 5.8595L26.7696 5.31283C26.7696 4.61242 26.4791 3.96325 26.0179 3.502L24.2071 1.70825L12.9662 12.9662C12.3341 13.5812 11.9583 14.4353 11.9583 15.3749V32.4583C11.9583 34.3374 13.4958 35.8749 15.375 35.8749H30.75C32.1679 35.8749 33.3808 35.0208 33.8933 33.7908L39.0525 21.747C39.2062 21.3541 39.2916 20.9441 39.2916 20.4999V17.0833C39.2916 15.2041 37.7541 13.6666 35.875 13.6666ZM35.875 20.4999L30.75 32.4583H15.375V15.3749L22.7891 7.96075L20.8929 17.0833H35.875V20.4999ZM1.70831 15.3749H8.54165V35.8749H1.70831V15.3749Z" fill="#F90C0C"/>
</svg>
