<svg width="31" height="31" viewBox="0 0 31 31" fill="none" xmlns="http://www.w3.org/2000/svg">
<path d="M27.125 10.3333V20.6667C27.125 22.3795 26.4446 24.0222 25.2334 25.2334C24.0222 26.4446 22.3795 27.125 20.6667 27.125H10.3333C8.62048 27.125 6.97777 26.4446 5.7666 25.2334C4.55543 24.0222 3.875 22.3795 3.875 20.6667V10.3333C3.875 8.62048 4.55543 6.97777 5.7666 5.7666C6.97777 4.55543 8.62048 3.875 10.3333 3.875H20.6667C22.3795 3.875 24.0222 4.55543 25.2334 5.7666C26.4446 6.97777 27.125 8.62048 27.125 10.3333Z" stroke="white" stroke-width="1.5" stroke-linecap="round" stroke-linejoin="round"/>
<path d="M11.625 16.7916H19.375M14.2083 27.1249V15.4999C14.2083 12.6738 14.8542 10.3333 19.375 10.3333L14.2083 27.1249Z" stroke="white" stroke-width="1.5" stroke-linecap="round" stroke-linejoin="round"/>
</svg>
