<svg width="40" height="40" viewBox="0 0 40 40" fill="none" xmlns="http://www.w3.org/2000/svg">
<path d="M3.75 7.5V32.5H36.25V7.5H3.75ZM6.25 10H33.75V30H29.4925C29.395 29.8288 29.4388 29.595 29.2962 29.4525C28.825 28.98 28.1537 28.75 27.5 28.75C26.8463 28.75 26.1763 28.98 25.7025 29.4538C25.5613 29.595 25.605 29.8288 25.5075 30H14.4925C14.395 29.8288 14.4387 29.595 14.2975 29.4525C13.8225 28.98 13.1538 28.75 12.5 28.75C11.8462 28.75 11.1763 28.98 10.7025 29.4538C10.5613 29.595 10.605 29.8288 10.5075 30H6.25V10ZM15 12.5C12.25 12.5 10 14.75 10 17.5C10 18.8912 10.5963 20.1462 11.5237 21.055C10.6733 21.6296 9.97605 22.4031 9.49264 23.3085C9.00923 24.2139 8.7543 25.2237 8.75 26.25H11.25C11.25 25.2554 11.6451 24.3016 12.3483 23.5983C13.0516 22.8951 14.0054 22.5 15 22.5C15.9946 22.5 16.9484 22.8951 17.6517 23.5983C18.3549 24.3016 18.75 25.2554 18.75 26.25H21.25C21.2457 25.2237 20.9908 24.2139 20.5074 23.3085C20.024 22.4031 19.3267 21.6296 18.4762 21.055C19.4038 20.1462 20 18.8925 20 17.5C20 14.75 17.75 12.5 15 12.5ZM15 15C16.3962 15 17.5 16.1038 17.5 17.5C17.5 18.8962 16.3962 20 15 20C13.6038 20 12.5 18.8962 12.5 17.5C12.5 16.1038 13.6038 15 15 15ZM23.75 16.25V18.75H31.25V16.25H23.75ZM23.75 21.25V23.75H31.25V21.25H23.75Z" fill="#F90C0C"/>
</svg>
